{"title":"Rihanna.American.Oxygen.2015.WEB-DL.1080p-WuHaPe.mp4","uid":11806478,"size":208662848,"categoryP":"video","categoryS":"music_videos","magnet":"?xt=urn:btih:2e3abc7f4e39b92f929eb74a6adf4152bf6f2a4a&amp;dn=Rihanna.American.Oxygen.2015.WEB-DL.1080p-WuHaPe.mp4&amp;tr=udp%3A%2F%2Ftracker.openbittorrent.com%3A80&amp;tr=udp%3A%2F%2Fopen.demonii.com%3A1337&amp;tr=udp%3A%2F%2Ftracker.coppersurfer.tk%3A6969&amp;tr=udp%3A%2F%2Fexodus.desync.com%3A6969","seeders":13,"leechers":1,"uploader":"WuHaPe","files":1,"time":1428611586,"description":"General\nComplete name               : Rihanna.American.Oxygen.2015.WEB-DL.1080p-WuHaPe.mp4\nFormat                      : MPEG-4\nFormat profile              : Base Media\nCodec ID                    : isom\nFile size                   : 199 MiB\nDuration                    : 5mn 20s\nOverall bit rate mode       : Variable\nOverall bit rate            : 5 207 Kbps\nEncoded date                : UTC 2015-04-07 03:46:29\nTagged date                 : UTC 2015-04-07 03:46:29\nWriting application         : FormatFactory : www.pcfreetime.com\n\nVideo\nID                          : 1\nFormat                      : AVC\nFormat/Info                 : Advanced Video Codec\nFormat profile              : &lt;a class=&quot;__cf_email__&quot; href=&quot;/cdn-cgi/l/email-protection&quot; data-cfemail=&quot;cd85a4aaa58d81f9e3fd&quot;&gt;[email&amp;#160;protected]&lt;/a&gt;&lt;script cf-hash='f9e31' type=&quot;text/javascript&quot;&gt;\n/* &lt;![CDATA[ */!function(){try{var t=&quot;currentScript&quot;in document?document.currentScript:function(){for(var t=document.getElementsByTagName(&quot;script&quot;),e=t.length;e--;)if(t[e].getAttribute(&quot;cf-hash&quot;))return t[e]}();if(t&amp;&amp;t.previousSibling){var e,r,n,i,c=t.previousSibling,a=c.getAttribute(&quot;data-cfemail&quot;);if(a){for(e=&quot;&quot;,r=parseInt(a.substr(0,2),16),n=2;a.length-n;n+=2)i=parseInt(a.substr(n,2),16)^r,e+=String.fromCharCode(i);e=document.createTextNode(e),c.parentNode.replaceChild(e,c)}}}catch(u){}}();/* ]]&gt; */&lt;/script&gt;\nFormat settings, CABAC      : No\nFormat settings, ReFrames   : 1 frame\nCodec ID                    : avc1\nCodec ID/Info               : Advanced Video Coding\nDuration                    : 5mn 20s\nBit rate                    : 5 000 Kbps\nMaximum bit rate            : 15.3 Mbps\nWidth                       : 1 920 pixels\nHeight                      : 1 080 pixels\nDisplay aspect ratio        : 16:9\nFrame rate mode             : Constant\nFrame rate                  : 23.976 fps\nColor space                 : YUV\nChroma subsampling          : 4:2:0\nBit depth                   : 8 bits\nScan type                   : Progressive\nBits/(Pixel*Frame)          : 0.101\nStream size                 : 190 MiB (96%)\nWriting library             : x264\n\nAudio\nID                          : 2\nFormat                      : AAC\nFormat/Info                 : Advanced Audio Codec\nFormat profile              : LC\nCodec ID                    : 40\nDuration                    : 5mn 20s\nBit rate mode               : Variable\nBit rate                    : 231 Kbps\nMaximum bit rate            : 320 Kbps\nChannel(s)                  : 2 channels\nChannel positions           : Front: L R\nSampling rate               : 44.1 KHz\nCompression mode            : Lossy\nStream size                 : 8.82 MiB (4%)","torrent":{"xt":"urn:btih:2e3abc7f4e39b92f929eb74a6adf4152bf6f2a4a","amp;dn":"Rihanna.American.Oxygen.2015.WEB-DL.1080p-WuHaPe.mp4","amp;tr":["udp%3A%2F%2Ftracker.openbittorrent.com%3A80","udp%3A%2F%2Fopen.demonii.com%3A1337","udp%3A%2F%2Ftracker.coppersurfer.tk%3A6969","udp%3A%2F%2Fexodus.desync.com%3A6969"],"infoHash":"2e3abc7f4e39b92f929eb74a6adf4152bf6f2a4a","infoHashBuffer":{"type":"Buffer","data":[46,58,188,127,78,57,185,47,146,158,183,74,106,223,65,82,191,111,42,74]},"announce":[],"urlList":[]}}